<svg xmlns="http://www.w3.org/2000/svg" viewBox="0 0 405.51 381.31"><defs><style>.cls-1{fill:#ffca34;}.cls-2{fill:#648eb2;}.cls-3{fill:#91af37;}.cls-4{fill:#fca838;}.cls-5{fill:#d82b40;}</style></defs><g id="Layer_2" data-name="Layer 2"><g id="Layer_1-2" data-name="Layer 1"><g id="Group_3" data-name="Group 3"><path id="Path_11" data-name="Path 11" class="cls-1" d="M377.35,26.68S47.22,4.13,35.17,5.26L0,363.25s254.17,22.8,350.53,17.17C350.53,380.42,363.37,375.57,377.35,26.68Z"/></g><g id="Group_5" data-name="Group 5"><path id="Path_16" data-name="Path 16" class="cls-2" d="M46.07,1.49,40.8,364.65s154.45,20.43,319.06-7.94c5.15-5.68,12.35-21.57,13.38-132.78S377.35,8.16,377.35,8.16,110.89-4.18,46.07,1.49Z"/></g><g id="Group_6" data-name="Group 6"><path id="Path_18" data-name="Path 18" class="cls-3" d="M40.8,12.06l5.64,301.59s182,3.35,233-19.95c0,0,7.52-.94,7.52-113.5S284.66,6.38,284.66,6.38,124.08,1.41,40.8,12.06Z"/></g><g id="Group_1" data-name="Group 1"><path id="Path_7" data-name="Path 7" class="cls-4" d="M58.85,13.76c-2.81,10.33,2.8,240.5,22,342.8,0,0,170.73,8.23,274.57-10.13L337.62,0Z"/></g><g id="Group_2" data-name="Group 2"><path id="Path_9" data-name="Path 9" class="cls-5" d="M404.14,11.3S198.6-.12,128,11.3c0,0-15.3,228.45,11.05,319.83,2.55,2.08,25.51,18.55,113.93,15s146.23,0,146.23,0S409,78.8,404.14,11.3Z"/></g></g></g></svg>