<svg xmlns="http://www.w3.org/2000/svg" viewBox="0 0 204 176.5"><defs><style>.cls-1{fill:#ffca34;}.cls-2{fill:#1d1c1c;}</style></defs><g id="Layer_2" data-name="Layer 2"><g id="Layer_1-2" data-name="Layer 1"><path id="Path_16" data-name="Path 16" class="cls-1" d="M5,10.1,0,176.3S92.71,179.51,191.76,160c3.12-2.8,7.53-10.35,8.7-61.22S204,0,204,0,44,4.94,5,10.1Z"/><path class="cls-2" d="M103,16.8a68.73,68.73,0,1,0,68.73,68.73A68.73,68.73,0,0,0,103,16.8ZM122.08,115,103,95.94,83.9,115,73.49,104.62,92.58,85.53,73.49,66.44,83.9,56,103,75.12,122.08,56,132.5,66.44,113.41,85.53l19.09,19.09Z"/></g></g></svg>