<svg xmlns="http://www.w3.org/2000/svg" viewBox="0 0 208.93 170.27"><defs><style>.cls-1{fill:#ffca34;}.cls-2{fill:#1d1c1c;}</style></defs><g id="Layer_2" data-name="Layer 2"><g id="Layer_1-2" data-name="Layer 1"><path id="Path_16" data-name="Path 16" class="cls-1" d="M189.21,170,208.93,4.86S121.52-6.14,26,5c-3.2,2.52-8,9.67-13.76,60.25S0,163.32,0,163.32,151.87,171.87,189.21,170Z"/><path class="cls-2" d="M40.55,132.86l109.53,13.83L164.16,35.25,54.63,21.41Zm61.06-32c-8-.06-13.75-8.34-11.79-17.1,1.43-6.38,6.72-11,12.58-11,8,.06,13.75,8.34,11.79,17.1C112.76,96.29,107.47,100.9,101.61,100.86Zm37.88-7c-2.94,13.09-10.72,24.42-21.34,31.06l-7.09-14.62a31.91,31.91,0,0,0,13.81-20.1ZM107.28,45a38.8,38.8,0,0,1,16.63,6.22l-8,14.52A25,25,0,0,0,93.75,63l-4.12-16A38.85,38.85,0,0,1,107.28,45ZM79,84.42a31.89,31.89,0,0,0,8.38,22.9l-10.52,12.4c-8.63-9.08-13.34-22-12.94-35.4Z"/></g></g></svg>