<svg xmlns="http://www.w3.org/2000/svg" viewBox="0 0 405.49 386.25" preserveAspectRatio="none"><defs><style>.cls-1{fill:#ffca34;}.cls-2{fill:#648eb2;}.cls-3{fill:#91af37;}.cls-4{fill:#fca838;}.cls-5{fill:#d82b40;}.cls-6{isolation:isolate;font-size:207.41px;fill:#1d1c1c;font-family:ArialMT, Arial;}</style></defs><g id="Layer_2" data-name="Layer 2"><g id="Layer_1-2" data-name="Layer 1"><g id="Group_3" data-name="Group 3"><path id="Path_11" data-name="Path 11" class="cls-1" d="M377.35,31.62S47.22,9.07,35.17,10.2L0,368.19S254.17,391,350.53,385.36C350.53,385.36,363.37,380.51,377.35,31.62Z"/></g><g id="Group_5" data-name="Group 5"><path id="Path_16" data-name="Path 16" class="cls-2" d="M46.07,6.43,40.8,369.59S195.25,390,359.86,361.65c5.15-5.68,12.35-21.57,13.38-132.78S377.35,13.1,377.35,13.1,110.89.76,46.07,6.43Z"/></g><g id="Group_6" data-name="Group 6"><path id="Path_18" data-name="Path 18" class="cls-3" d="M40.8,17l5.64,301.59s182,3.35,233-19.95c0,0,7.52-.94,7.52-113.5s-2.3-173.82-2.3-173.82S124.08,6.35,40.8,17Z"/></g><g id="Group_1" data-name="Group 1"><path id="Path_7" data-name="Path 7" class="cls-4" d="M58.85,18.7C56,29,61.65,259.2,80.85,361.5c0,0,170.73,8.23,274.57-10.13L337.62,4.94Z"/></g><g id="Group_2" data-name="Group 2"><path id="Path_9" data-name="Path 9" class="cls-5" d="M404.14,16.24S198.6,4.82,128,16.24c0,0-15.3,228.45,11.05,319.83,2.55,2.08,25.51,18.55,113.93,15s146.23,0,146.23,0S409,83.74,404.14,16.24Z"/></g><g id="Group_4" data-name="Group 4"><path id="Path_13" data-name="Path 13" class="cls-1" d="M85.7,15.41S169,10.71,224.88,6.52,320.78,0,320.78,0,340.5,227,340.5,251.88c0,0-164.38,17.19-221.37,10.07-3.84-.59-21.2-43.54-23.57-103.71S85.7,15.41,85.7,15.41Z"/></g><g id="_2" data-name=" 2"><text class="cls-6" transform="matrix(1.22, -0.12, 0.1, 1, 144.91, 214.16)">+</text></g></g></g></svg>