<svg xmlns="http://www.w3.org/2000/svg" viewBox="0 0 220.79 172.85"><defs><style>.cls-1{fill:#ffca34;}</style></defs><g id="Layer_2" data-name="Layer 2"><g id="Capa_1" data-name="Capa 1"><path id="Path_16" data-name="Path 16" class="cls-1" d="M5.35,9.86,0,172.66s100.35,3.15,207.57-15.93c3.37-2.74,8.14-10.14,9.4-60S220.79,0,220.79,0,47.55,4.81,5.35,9.86Z"/><path d="M128.38,48.86H88.61a3.6,3.6,0,1,0,0,7.2h39.77a3.6,3.6,0,0,0,0-7.2Z"/><path d="M88.61,39.11h39.77a3.6,3.6,0,0,0,0-7.2H88.61a3.6,3.6,0,1,0,0,7.2Z"/><path d="M169.23,23H144V67.47a2.25,2.25,0,0,1-2.25,2.25H75.25A2.25,2.25,0,0,1,73,67.47V23H47.76a2.25,2.25,0,0,0-2.25,2.25v95.83a2.25,2.25,0,0,0,.66,1.59L71.8,148.35a2.25,2.25,0,0,0,1.46.64V117.77a2.25,2.25,0,0,1,2.25-2.25H146a2.25,2.25,0,0,1,2.25,2.25V149h21a2.25,2.25,0,0,0,2.25-2.25V25.29A2.25,2.25,0,0,0,169.23,23Z"/><path d="M79.9,122.26V149h61.46V122.26Zm14.18,22.25a2.25,2.25,0,0,1-4.5,0V128.76a2.25,2.25,0,0,1,4.5,0Z"/></g></g></svg>